<?xml version="1.0" encoding="UTF-8"?>
<svg version="1.1" xmlns="http://www.w3.org/2000/svg" width="96" height="96">
<path d="M0 0 C9.3446463 8.43613902 15.37509959 20.02682068 16.25 32.58984375 C16.85360455 47.33606399 13.01957214 60.11678163 2.96875 71.25 C-7.37255507 81.14168311 -19.71760967 85.40970338 -33.79272461 85.36889648 C-47.16652212 84.98590194 -59.07048203 79.47460969 -68.3125 69.8125 C-77.87173825 58.31000798 -81.01273939 45.62425213 -80.19091797 31.00878906 C-78.98314014 18.3008658 -72.23988483 6.86008774 -62.5234375 -1.21484375 C-43.11151048 -14.94742989 -18.82901651 -14.8278505 0 0 Z " fill="#FDF9C1" transform="translate(80,11)"/>
<path d="M0 0 C0.99 0.33 1.98 0.66 3 1 C3 1.99 3 2.98 3 4 C5.64 4 8.28 4 11 4 C11.33 2.68 11.66 1.36 12 0 C12.99 0.33 13.98 0.66 15 1 C15 1.99 15 2.98 15 4 C15.9075 3.938125 16.815 3.87625 17.75 3.8125 C21 4 21 4 23.375 5.0625 C25.78794727 7.93947559 25.2734643 10.37659799 25 14 C26.32 14.33 27.64 14.66 29 15 C28.67 15.99 28.34 16.98 28 18 C27.01 18 26.02 18 25 18 C25 20.64 25 23.28 25 26 C26.32 26.33 27.64 26.66 29 27 C28.505 28.485 28.505 28.485 28 30 C27.01 30 26.02 30 25 30 C25.0825 30.9075 25.165 31.815 25.25 32.75 C25 36 25 36 23.375 38.375 C20.3962104 40.4131192 18.53677664 40.32152515 15 40 C14.67 41.32 14.34 42.64 14 44 C12.515 43.505 12.515 43.505 11 43 C11 42.01 11 41.02 11 40 C8.36 40 5.72 40 3 40 C2.67 41.32 2.34 42.64 2 44 C1.01 44 0.02 44 -1 44 C-1 42.68 -1 41.36 -1 40 C-2.093125 40.0825 -3.18625 40.165 -4.3125 40.25 C-8 40 -8 40 -9.9375 38.375 C-11.25066255 35.43969547 -11.21691118 33.18136394 -11 30 C-12.32 29.67 -13.64 29.34 -15 29 C-14.505 27.515 -14.505 27.515 -14 26 C-13.01 26 -12.02 26 -11 26 C-11 23.36 -11 20.72 -11 18 C-12.32 17.67 -13.64 17.34 -15 17 C-14.505 15.515 -14.505 15.515 -14 14 C-13.01 14 -12.02 14 -11 14 C-11.061875 12.906875 -11.12375 11.81375 -11.1875 10.6875 C-11 7 -11 7 -9.9375 5.0625 C-6.98831309 3.44520395 -4.29132441 3.81369862 -1 4 C-0.67 2.68 -0.34 1.36 0 0 Z " fill="#FDF9B9" transform="translate(41,26)"/>
<path d="M0 0 C0.99 0.33 1.98 0.66 3 1 C3 1.99 3 2.98 3 4 C5.64 4 8.28 4 11 4 C11.33 2.68 11.66 1.36 12 0 C12.99 0.33 13.98 0.66 15 1 C15 1.99 15 2.98 15 4 C15.9075 3.938125 16.815 3.87625 17.75 3.8125 C21 4 21 4 23.375 5.0625 C25.78794727 7.93947559 25.2734643 10.37659799 25 14 C26.32 14.33 27.64 14.66 29 15 C28.67 15.99 28.34 16.98 28 18 C27.01 18 26.02 18 25 18 C25 20.64 25 23.28 25 26 C26.32 26.33 27.64 26.66 29 27 C28.505 28.485 28.505 28.485 28 30 C27.01 30 26.02 30 25 30 C25.0825 30.9075 25.165 31.815 25.25 32.75 C25 36 25 36 23.375 38.375 C20.3962104 40.4131192 18.53677664 40.32152515 15 40 C14.67 41.32 14.34 42.64 14 44 C12.515 43.505 12.515 43.505 11 43 C11 42.01 11 41.02 11 40 C8.36 40 5.72 40 3 40 C2.67 41.32 2.34 42.64 2 44 C1.01 44 0.02 44 -1 44 C-1 42.68 -1 41.36 -1 40 C-2.093125 40.0825 -3.18625 40.165 -4.3125 40.25 C-8 40 -8 40 -9.9375 38.375 C-11.25066255 35.43969547 -11.21691118 33.18136394 -11 30 C-12.32 29.67 -13.64 29.34 -15 29 C-14.505 27.515 -14.505 27.515 -14 26 C-13.01 26 -12.02 26 -11 26 C-11 23.36 -11 20.72 -11 18 C-12.32 17.67 -13.64 17.34 -15 17 C-14.505 15.515 -14.505 15.515 -14 14 C-13.01 14 -12.02 14 -11 14 C-11.061875 12.906875 -11.12375 11.81375 -11.1875 10.6875 C-11 7 -11 7 -9.9375 5.0625 C-6.98831309 3.44520395 -4.29132441 3.81369862 -1 4 C-0.67 2.68 -0.34 1.36 0 0 Z M-7 9 C-7.09971786 10.91458282 -7.13080589 12.83282317 -7.1328125 14.75 C-7.13410156 15.9153125 -7.13539062 17.080625 -7.13671875 18.28125 C-7.13285156 19.5084375 -7.12898438 20.735625 -7.125 22 C-7.12886719 23.2271875 -7.13273437 24.454375 -7.13671875 25.71875 C-7.13542969 26.8840625 -7.13414063 28.049375 -7.1328125 29.25 C-7.13168457 30.32765625 -7.13055664 31.4053125 -7.12939453 32.515625 C-7.28092371 34.94219997 -7.28092371 34.94219997 -6 36 C-4.08541718 36.09971786 -2.16717683 36.13080589 -0.25 36.1328125 C1.49796875 36.13474609 1.49796875 36.13474609 3.28125 36.13671875 C5.12203125 36.13091797 5.12203125 36.13091797 7 36.125 C8.2271875 36.12886719 9.454375 36.13273437 10.71875 36.13671875 C11.8840625 36.13542969 13.049375 36.13414063 14.25 36.1328125 C15.32765625 36.13168457 16.4053125 36.13055664 17.515625 36.12939453 C19.94219997 36.28092371 19.94219997 36.28092371 21 35 C21.09971786 33.08541718 21.13080589 31.16717683 21.1328125 29.25 C21.13410156 28.0846875 21.13539062 26.919375 21.13671875 25.71875 C21.13091797 23.87796875 21.13091797 23.87796875 21.125 22 C21.12886719 20.7728125 21.13273437 19.545625 21.13671875 18.28125 C21.13542969 17.1159375 21.13414063 15.950625 21.1328125 14.75 C21.13168457 13.67234375 21.13055664 12.5946875 21.12939453 11.484375 C21.28092371 9.05780003 21.28092371 9.05780003 20 8 C18.08541718 7.90028214 16.16717683 7.86919411 14.25 7.8671875 C12.50203125 7.86525391 12.50203125 7.86525391 10.71875 7.86328125 C8.87796875 7.86908203 8.87796875 7.86908203 7 7.875 C5.7728125 7.87113281 4.545625 7.86726563 3.28125 7.86328125 C2.1159375 7.86457031 0.950625 7.86585937 -0.25 7.8671875 C-1.32765625 7.86831543 -2.4053125 7.86944336 -3.515625 7.87060547 C-5.94219997 7.71907629 -5.94219997 7.71907629 -7 9 Z " fill="#C98C12" transform="translate(41,26)"/>
<path d="M0 0 C1.0725 0.00515625 2.145 0.0103125 3.25 0.015625 C4.85875 0.00789063 4.85875 0.00789063 6.5 0 C9.25 0.265625 9.25 0.265625 11.25 2.265625 C11.515625 5.015625 11.515625 5.015625 11.5 8.265625 C11.50515625 9.338125 11.5103125 10.410625 11.515625 11.515625 C11.25 14.265625 11.25 14.265625 9.25 16.265625 C6.5 16.53125 6.5 16.53125 3.25 16.515625 C1.64125 16.52335937 1.64125 16.52335937 0 16.53125 C-2.75 16.265625 -2.75 16.265625 -4.75 14.265625 C-5.015625 11.515625 -5.015625 11.515625 -5 8.265625 C-5.00515625 7.193125 -5.0103125 6.120625 -5.015625 5.015625 C-4.64793525 1.20895466 -3.80667034 0.36768975 0 0 Z " fill="#C78E19" transform="translate(44.75,39.734375)"/>
<path d="M0 0 C3.375 -0.125 3.375 -0.125 7 0 C9 2 9 2 9.23046875 4.3125 C9.20919922 5.6428125 9.20919922 5.6428125 9.1875 7 C9.17783203 8.3303125 9.17783203 8.3303125 9.16796875 9.6875 C9 12 9 12 8 14 C6.20866022 14.05391993 4.41686101 14.09275571 2.625 14.125 C1.62726562 14.14820313 0.62953125 14.17140625 -0.3984375 14.1953125 C-3 14 -3 14 -5 12 C-5.1953125 9.6171875 -5.1953125 9.6171875 -5.125 6.875 C-5.10695312 5.96492188 -5.08890625 5.05484375 -5.0703125 4.1171875 C-5.04710937 3.41851562 -5.02390625 2.71984375 -5 2 C-4.01 2.495 -4.01 2.495 -3 3 C-3 5.64 -3 8.28 -3 11 C-0.03 11 2.94 11 6 11 C6 8.03 6 5.06 6 2 C3.69 2 1.38 2 -1 2 C-0.67 1.34 -0.34 0.68 0 0 Z " fill="#CE8806" transform="translate(46,41)"/>
<path d="M0 0 C0.66 0.33 1.32 0.66 2 1 C2.33 10.24 2.66 19.48 3 29 C1.68 28.67 0.36 28.34 -1 28 C-1 26.02 -1 24.04 -1 22 C-2.32 21.67 -3.64 21.34 -5 21 C-4.505 19.515 -4.505 19.515 -4 18 C-3.01 18 -2.02 18 -1 18 C-1 15.03 -1 12.06 -1 9 C-1.66 9 -2.32 9 -3 9 C-3 8.34 -3 7.68 -3 7 C-2.01 7 -1.02 7 0 7 C0 4.69 0 2.38 0 0 Z " fill="#CB8909" transform="translate(31,34)"/>
<path d="M0 0 C2.64 0 5.28 0 8 0 C8 2.64 8 5.28 8 8 C5.36 8 2.72 8 0 8 C0 5.36 0 2.72 0 0 Z " fill="#FEF7B7" transform="translate(44,44)"/>
<path d="M0 0 C0.99 0.33 1.98 0.66 3 1 C3 1.66 3 2.32 3 3 C3.99 3.66 4.98 4.32 6 5 C2.625 5.1875 2.625 5.1875 -1 5 C-1.66 4.01 -2.32 3.02 -3 2 C-2.01 2 -1.02 2 0 2 C0 1.34 0 0.68 0 0 Z " fill="#CF9320" transform="translate(34,61)"/>
</svg>
