<svg width="136" height="66" viewBox="0 0 136 66" fill="none" xmlns="http://www.w3.org/2000/svg">
<ellipse cx="102.64" cy="53.1122" rx="10.861" ry="11.2489" fill="#D0D1D3"/>
<ellipse cx="26.613" cy="53.1122" rx="10.861" ry="11.2489" fill="#D0D1D3"/>
<path d="M135.956 32.6708C135.756 27.3071 131.274 23.0423 125.938 22.9762C124.399 22.9762 122.86 22.9762 121.321 22.9762C117.24 22.9762 113.159 22.9762 109.078 22.9762C105.131 22.9762 101.185 22.9762 97.239 22.9762C97.0727 22.8599 96.8668 22.7825 96.62 22.7664C96.5367 22.761 96.4532 22.7539 96.3702 22.7451C96.2718 22.7347 96.1735 22.7238 96.0749 22.7134C96.0261 22.7083 95.9774 22.7014 95.9287 22.6956C95.925 22.6951 95.9228 22.6949 95.9194 22.6946C95.9145 22.6938 95.9111 22.6933 95.9054 22.6924C95.1045 22.5709 94.3106 22.4171 93.5269 22.2115C91.4899 21.6771 89.4261 20.8311 87.8997 19.3369C86.9374 18.3949 86.4554 17.2547 85.8638 16.0666C85.1403 14.6137 84.3307 13.203 83.4212 11.8582C81.9082 9.62136 80.138 7.54201 78.0763 5.7921C73.731 2.10397 68.1812 -0.175504 62.443 0.0105922C59.5477 0.104401 56.6354 0.0114381 53.7385 0.0114381C50.9657 0.0114381 48.1857 0.177589 45.4145 0.267003C43.5826 0.326162 41.7856 0.342726 39.9731 0.619589C36.6098 1.13343 33.2253 2.23141 30.3541 4.08173C26.7124 6.42848 24.0261 10.1112 23.4568 14.4651C23.4566 14.466 23.4566 14.466 23.4565 14.4668C23.4424 14.5508 23.4328 14.6357 23.4183 14.7197C23.3674 15.0163 23.3153 15.3123 23.2531 15.6069C23.0946 16.357 22.8923 17.0987 22.6409 17.8231C22.0992 19.3848 21.2123 21.119 19.7964 22.0966C18.9966 22.649 18.11 22.905 17.1378 22.9181C17.0031 22.9199 16.8807 22.9409 16.77 22.9764C14.6952 22.9764 12.6204 22.9764 10.5457 22.9764C8.66137 22.9764 6.83167 23.3187 5.1639 24.2466C3.04112 25.4277 1.43538 27.3737 0.596171 29.6424C0.0811512 31.0343 0.00999126 32.4798 0.00999126 33.9431C0.00999126 36.6596 -0.0124891 39.377 0.00999126 42.0935C0.0208089 43.3927 0.283136 44.6594 0.755731 45.8316C1.4342 50.0351 5.09748 53.2733 9.48469 53.2733H11.8619H13.235C13.235 53.2733 13.3359 52.4523 13.5166 51.4297C13.53 51.39 13.5415 51.3496 13.5484 51.3077C14.3501 46.4085 17.7331 42.1954 22.4951 40.6282C27.3158 39.0415 32.701 40.3405 36.2439 43.9794C38.1529 45.9401 39.3533 48.4177 39.8315 51.0983L40.0725 53.2735H41.4653L88.9534 53.3149L89.3347 51.4081C89.3447 51.3753 89.353 51.342 89.3585 51.308C89.3695 51.2411 89.3827 51.1748 89.3947 51.1082L89.5098 50.5325C90.5257 45.9685 93.7968 42.1124 98.3052 40.6285C103.126 39.0419 108.511 40.3408 112.054 43.9798C112.553 44.4924 113.003 45.0409 113.406 45.6186H113.304C113.438 45.762 113.57 45.9089 113.698 46.0576C114.709 47.6412 115.372 49.4266 115.68 51.308C115.762 51.8107 116.339 52.1734 116.816 52.1734C116.823 52.1734 116.83 52.1734 116.836 52.1734C116.922 52.5352 116.994 52.9019 117.052 53.2736H126.174C130.06 53.2736 133.379 50.7328 134.558 47.231C135.309 45.9528 135.775 44.5188 135.919 43.0229C136.013 42.0556 135.963 41.0639 135.963 40.0939C135.963 37.6239 136.048 35.1388 135.956 32.6708ZM65.492 2.48731C65.4589 2.48292 65.4606 2.48292 65.492 2.48731V2.48731Z" fill="#EB1716"/>
<path d="M105.612 37.5628C105.436 37.4748 105.258 37.3892 105.079 37.3083L105.173 37.2692C104.58 36.8894 103.954 36.5553 103.297 36.2727C98.6307 34.2674 93.1585 35.129 89.3125 38.4406C88.0788 39.5027 87.0878 40.7677 86.3493 42.1564L41.4657 42.1174H40.5091C38.7138 42.4304 36.9063 42.6671 35.0918 42.8379C35.4937 43.1628 35.8789 43.5125 36.2442 43.8878C38.1532 45.8484 39.3536 48.326 39.8318 51.0066L40.0728 53.1818H41.4656L88.9537 53.2232L89.335 51.3164C89.345 51.2836 89.3533 51.2503 89.3588 51.2163C89.3698 51.1494 89.383 51.0832 89.395 51.0166L89.5101 50.4409C90.2574 47.0839 92.2258 44.1112 95.0082 42.1825C94.3334 42.1578 93.6585 42.139 92.9834 42.1235C94.3147 40.8943 96.0237 39.9943 97.5998 39.4955C98.9208 39.0773 100.347 38.7952 101.725 39.0083C103.706 38.7239 105.819 38.7514 107.699 39.3733C107.065 38.7 106.369 38.0921 105.612 37.5628Z" fill="#EB1716"/>
<path d="M30.028 37.563C29.8521 37.475 29.6747 37.3894 29.4954 37.3085L29.5896 37.2694C28.9968 36.8896 28.3707 36.5555 27.7134 36.2728C23.0473 34.2675 17.5751 35.1292 13.7291 38.4408C12.507 39.4931 11.5228 40.7441 10.7865 42.1174H9.48486C5.09765 42.1174 1.43437 38.8792 0.755898 34.6757C0.413622 33.8267 0.183241 32.9277 0.0772624 32.0029C0.0233434 32.6141 0.00999126 33.2311 0.00999126 33.8514C0.00999126 36.568 -0.0124891 39.2854 0.00999126 42.0018C0.0208089 43.3011 0.283136 44.5678 0.755731 45.7399C1.4342 49.9434 5.09748 53.1816 9.48469 53.1816H13.2354C13.2354 53.1816 13.3363 52.3607 13.517 51.3381C13.5303 51.2983 13.542 51.2579 13.5487 51.216C14.0839 47.9455 15.7706 44.9822 18.2486 42.9062C17.7064 42.8741 17.164 42.8462 16.6216 42.8212C16.7541 42.7061 16.8895 42.5932 17.0281 42.4833C18.402 41.0683 20.2898 40.0414 22.0167 39.495C23.3377 39.0768 24.7644 38.7947 26.1418 39.0078C28.1233 38.7234 30.2361 38.7509 32.1155 39.3728C31.482 38.7002 30.7852 38.0922 30.028 37.563Z" fill="#EB1716"/>
<path d="M135.8 32.5785C135.792 32.3653 135.775 32.1547 135.753 31.9453C135.6 33.4125 135.139 34.8186 134.402 36.0739C133.223 39.5758 129.904 42.1166 126.017 42.1166H117.987C115.437 42.2467 112.888 42.422 110.337 42.5216C110.888 42.9321 111.411 43.3865 111.898 43.8869C112.397 44.3996 112.847 44.9481 113.25 45.5258H113.148C113.282 45.6691 113.414 45.816 113.542 45.9648C114.553 47.5484 115.216 49.3338 115.524 51.2152C115.606 51.7179 116.183 52.0806 116.66 52.0806H116.68C116.766 52.4423 116.838 52.8091 116.896 53.1808H126.018C129.904 53.1808 133.223 50.64 134.402 47.1381C135.153 45.86 135.619 44.426 135.763 42.9301C135.857 41.9628 135.807 40.9711 135.807 40.0011C135.806 37.5316 135.891 35.0464 135.8 32.5785Z" fill="#EB1716"/>
<path d="M13.547 29.5194C13.5592 28.8031 13.5622 28.0866 13.5597 27.3701C13.5589 27.1465 13.3797 26.9925 13.1667 26.9771C10.1398 26.7606 4.01469 27.0449 3.92781 31.2034C3.92342 31.4159 4.11137 31.5964 4.32079 31.5964C7.23005 31.5964 10.1395 31.5964 13.0489 31.5964C13.1686 31.5964 13.259 31.5514 13.3221 31.4843C13.3236 31.4832 13.3251 31.4825 13.3266 31.4815C13.7134 31.1759 13.5401 29.9285 13.547 29.5194Z" fill="#EB1716"/>
<path d="M14.0978 29.2001C14.11 28.4838 14.113 27.7673 14.1105 27.0508C14.1096 26.8271 13.9305 26.6732 13.7175 26.6578C10.6906 26.4413 4.56547 26.7256 4.47859 30.8839C4.4742 31.0964 4.66215 31.2769 4.87157 31.2769C7.78083 31.2769 10.6903 31.2769 13.5997 31.2769C13.7194 31.2769 13.8098 31.2319 13.8728 31.1648C13.8744 31.1637 13.8759 31.163 13.8774 31.1618C14.264 30.8565 14.0909 29.6091 14.0978 29.2001Z" fill="#D0D1D3"/>
<path d="M73.5982 17.0957C73.5696 17.0648 73.5392 17.0354 73.5054 17.0085C71.3125 15.2618 69.1117 13.5245 66.9274 11.7672C64.8679 10.1102 62.8683 8.20263 60.4724 7.03348C58.1126 5.88191 55.5678 5.62414 52.9725 5.62414C50.0582 5.62414 47.1441 5.62414 44.2297 5.62414C42.8013 5.62414 41.3654 5.56533 39.9476 5.76799C37.2255 6.15691 34.6482 7.51317 32.7752 9.52761C30.847 11.6014 29.7022 14.2598 29.4816 17.0786C29.4115 17.9735 29.3271 19.0696 29.5531 19.9451C29.9419 21.4512 31.2761 22.409 32.7982 22.4709C35.8457 22.5948 38.923 22.4709 41.9731 22.4709C46.4467 22.4709 50.9204 22.4709 55.394 22.4709C59.1878 22.4709 62.9817 22.4709 66.7755 22.4709C68.1265 22.4709 69.4775 22.4709 70.8285 22.4709C72.3732 22.4709 73.8306 21.9927 74.4022 20.3824C74.8133 19.2246 74.4824 17.9314 73.5982 17.0957Z" fill="#EB1716"/>
<path d="M56.9552 5.46749L54.3219 5.34766C54.2217 5.40715 54.1162 5.45752 54.0028 5.49437C53.7499 5.62722 53.4775 5.68807 53.1854 5.67708H53.0806C52.7632 5.67607 52.4642 5.60863 52.1824 5.47662L43.9766 20.9069L50.0217 20.9593L57.2445 5.98268C57.1237 5.82633 57.0272 5.65241 56.9552 5.46749Z" fill="white"/>
<path d="M33.7531 21.7512C33.7669 21.8185 33.781 21.8829 33.795 21.9451L42.1271 6.30742L38.7278 5.97461L33.4902 21.0598C33.6096 21.2702 33.701 21.5009 33.7531 21.7512Z" fill="white"/>
<path d="M62.9468 8.7793L56.126 20.9809L58.3181 21.2079L63.257 9.4079C63.1557 9.19713 63.0523 8.9877 62.9468 8.7793Z" fill="white"/>
<path d="M48.9683 6.06836L39.165 21.3269L41.3343 21.2745C41.3343 21.2745 50.3569 6.27795 50.3569 6.12093L48.9683 6.06836Z" fill="white"/>
<path d="M56.9552 5.46749L54.3219 5.34766C54.2217 5.40715 54.1162 5.45752 54.0028 5.49437C53.7499 5.62722 53.4775 5.68807 53.1854 5.67708H53.0806C52.7632 5.67607 52.4642 5.60863 52.1824 5.47662L43.9766 20.9069L50.0217 20.9593L57.2445 5.98268C57.1237 5.82633 57.0272 5.65241 56.9552 5.46749Z" fill="white"/>
<path d="M33.7531 21.7512C33.7669 21.8185 33.781 21.8829 33.795 21.9451L42.1271 6.30742L38.7278 5.97461L33.4902 21.0598C33.6096 21.2702 33.701 21.5009 33.7531 21.7512Z" fill="white"/>
<path d="M62.9468 8.7793L56.126 20.9809L58.3181 21.2079L63.257 9.4079C63.1557 9.19713 63.0523 8.9877 62.9468 8.7793Z" fill="white"/>
<path d="M48.9683 6.06836L39.165 21.3269L41.3343 21.2745C41.3343 21.2745 50.3569 6.27795 50.3569 6.12093L48.9683 6.06836Z" fill="white"/>
<path d="M56.9552 5.46749L54.3219 5.34766C54.2217 5.40715 54.1162 5.45752 54.0028 5.49437C53.7499 5.62722 53.4775 5.68807 53.1854 5.67708H53.0806C52.7632 5.67607 52.4642 5.60863 52.1824 5.47662L43.9766 20.9069L50.0217 20.9593L57.2445 5.98268C57.1237 5.82633 57.0272 5.65241 56.9552 5.46749Z" fill="white"/>
<path d="M33.7531 21.7512C33.7669 21.8185 33.781 21.8829 33.795 21.9451L42.1271 6.30742L38.7278 5.97461L33.4902 21.0598C33.6096 21.2702 33.701 21.5009 33.7531 21.7512Z" fill="white"/>
<path d="M62.9468 8.7793L56.126 20.9809L58.3181 21.2079L63.257 9.4079C63.1557 9.19713 63.0523 8.9877 62.9468 8.7793Z" fill="white"/>
<path d="M48.9683 6.06836L39.165 21.3269L41.3343 21.2745C41.3343 21.2745 50.3569 6.27795 50.3569 6.12093L48.9683 6.06836Z" fill="white"/>
<path d="M130.916 31.6396C131.5 30.4388 130.182 28.5931 127.97 27.517C125.759 26.441 123.493 26.542 122.909 27.7428C122.324 28.9436 123.643 30.7893 125.854 31.8654C128.065 32.9415 130.332 32.8404 130.916 31.6396Z" fill="#D0D1D3"/>
<path d="M73.401 3.75098C71.6096 4.48505 70.9019 7.76786 72.4647 9.2279L80.9765 17.1788C81.565 17.7285 82.3557 17.9947 83.1473 17.9094L84.6793 16.0962L73.401 3.75098Z" fill="#D0D1D3"/>
<path d="M43.0557 30.4531H42.2691H36.6945H35.9078C35.3891 30.4531 34.9648 30.8775 34.9648 31.3961V32.4468C34.9648 32.9653 35.3893 33.3898 35.9078 33.3898H36.6945H42.2691H43.0557C43.5743 33.3898 43.9987 32.9653 43.9987 32.4468V31.3961C43.9987 30.8774 43.5743 30.4531 43.0557 30.4531Z" fill="#EB1716"/>
<path d="M79.418 25.5498C79.418 22.2643 78.4244 19.1718 76.2567 16.6603C74.8889 15.0757 73.0809 13.8046 71.4721 12.4799C69.5834 10.9249 67.6945 9.36987 65.8059 7.81484C63.1437 5.62309 60.0222 4.35844 56.5429 4.36723C56.3388 4.36774 56.1344 4.36994 55.9301 4.37078C55.8719 4.37027 55.8146 4.36706 55.7563 4.36723C51.4117 4.37822 47.0664 4.45327 42.7221 4.49637C40.3421 4.51986 38.0928 4.64376 35.789 5.40843C31.968 6.67662 28.8514 9.50442 27.5499 13.3587C26.8331 15.4811 26.9215 17.657 26.9215 19.8572C26.9215 22.5503 26.9215 25.2432 26.9215 27.9363C26.9215 30.0494 26.6987 32.2028 28.322 33.8598C29.8231 35.3918 32.0269 35.3622 33.9333 36.0708C35.7459 36.7445 37.4161 37.7911 38.7968 39.1458C39.839 40.1683 40.6999 41.3479 41.392 42.6311C42.6996 44.9637 45.0454 45.8545 47.5958 45.8399C47.7917 45.8387 47.9877 45.8377 48.1836 45.8365C48.2499 45.8374 48.3158 45.8403 48.3824 45.8399C50.2664 45.8291 52.1503 45.8185 54.0343 45.8076C59.1469 45.7786 64.2594 45.7493 69.3721 45.7202C69.8917 45.7251 70.4209 45.7373 70.9485 45.7297C71.8979 45.7395 72.86 45.7289 73.7688 45.5382C77.0305 44.8542 79.386 41.997 79.4183 38.6738C79.4602 34.2999 79.418 29.9238 79.418 25.5498ZM78.635 27.6117C78.6335 26.9243 78.6313 26.2371 78.6313 25.5498C78.6313 24.1237 78.4435 22.7342 78.0543 21.4126C78.1254 21.6296 78.1927 21.8493 78.2515 22.0752C78.7206 23.8729 78.6516 25.7611 78.635 27.6117ZM47.7268 45.0577C45.6929 45.0384 43.8571 44.0183 42.857 42.2343C41.3971 39.5278 39.1565 37.2921 36.3855 35.9369C35.511 35.5093 34.5961 35.1633 33.6585 34.9016C32.5978 34.6057 31.4441 34.5465 30.4871 33.9595C29.1957 33.1673 28.5035 31.8107 28.4936 30.3158C28.4655 26.0932 28.4936 21.8698 28.4936 17.6472C28.4936 14.4567 29.555 11.4546 31.8305 9.16417C34.2729 6.70553 37.9421 5.37327 41.3821 5.30346C45.8524 5.2127 50.3267 5.21489 54.7979 5.17061C54.8605 5.16993 54.9227 5.16993 54.9852 5.16943C57.2054 5.19005 59.3567 5.39998 61.4364 6.3859C63.4273 7.32974 65.0686 8.86871 66.7555 10.2578C68.6658 11.8305 70.5761 13.4033 72.4864 14.9761C74.81 16.8891 76.6852 19.0871 77.4649 22.0753C77.9813 24.0546 77.8454 26.1441 77.8454 28.1721C77.8454 30.7703 77.8454 33.3686 77.8454 35.9668C77.8454 37.96 78.0627 40.0393 76.9913 41.8259C75.6467 44.0682 73.2854 44.9077 70.7972 44.9219C66.3581 44.9473 61.919 44.9725 57.4799 44.9978C54.6583 45.0139 51.8339 45.0636 49.0114 45.0656C48.5832 45.0641 48.1551 45.0617 47.7268 45.0577ZM27.772 16.3222C27.7277 16.9037 27.7113 17.488 27.7066 18.0747C27.7066 17.9322 27.7071 17.7895 27.7071 17.647C27.7071 17.2011 27.7301 16.7595 27.772 16.3222ZM27.7054 19.0156C27.7064 19.2957 27.7078 19.5761 27.7078 19.857C27.7078 22.5501 27.7078 25.243 27.7078 27.9361C27.7078 28.2064 27.704 28.4775 27.7012 28.7479C27.6893 25.5042 27.7015 22.2597 27.7054 19.0156ZM27.7056 29.9074C27.7233 30.5068 27.7764 31.0957 27.9131 31.6612C27.7798 31.2348 27.7103 30.782 27.7071 30.3158C27.7062 30.1796 27.7064 30.0435 27.7056 29.9074ZM78.6318 38.5688C78.6372 37.9949 78.6384 37.4211 78.6413 36.8471C78.6503 37.4215 78.6585 37.9982 78.6318 38.5688Z" fill="#EB1716"/>
<path d="M74.2867 16.5705C74.2581 16.5396 74.2277 16.5101 74.1939 16.4833C72.0009 14.7366 69.8002 12.9993 67.6159 11.2418C65.5563 9.58485 63.5568 7.67723 61.1608 6.50809C58.8011 5.35652 56.2562 5.09875 53.661 5.09875C50.7467 5.09875 47.8325 5.09875 44.9182 5.09875C43.4898 5.09875 42.0539 5.03994 40.6361 5.2426C37.914 5.63169 35.3367 6.98778 33.4637 9.00222C31.5355 11.076 30.3907 13.7344 30.1701 16.5533C30.0999 17.4481 30.0156 18.5442 30.2416 19.4198C30.6303 20.9258 31.9646 21.8836 33.4867 21.9455C36.5342 22.0694 39.6115 21.9455 42.6615 21.9455C47.1351 21.9455 51.6089 21.9455 56.0825 21.9455C59.8762 21.9455 63.6702 21.9455 67.464 21.9455C68.815 21.9455 70.166 21.9455 71.517 21.9455C73.0617 21.9455 74.5192 21.4673 75.0907 19.857C75.5018 18.6992 75.1708 17.4062 74.2867 16.5705Z" fill="#F3F3F3"/>
<path d="M71.0878 16.126C71.0627 16.1011 71.0356 16.0775 71.0059 16.0558C69.0676 14.6484 67.1223 13.2485 65.1916 11.8324C63.3712 10.4973 61.6038 8.96018 59.4861 8.01803C57.4003 7.09008 55.151 6.88235 52.8571 6.88235C50.2812 6.88235 47.7054 6.88235 45.1295 6.88235C43.8668 6.88235 42.5978 6.83502 41.3446 6.9983C38.9386 7.31167 36.6606 8.40459 35.005 10.0277C33.3007 11.6987 32.289 13.8409 32.0939 16.1123C32.032 16.8334 31.9573 17.7167 32.1571 18.422C32.5007 19.6356 33.6802 20.4074 35.0255 20.4573C37.7191 20.557 40.439 20.4573 43.135 20.4573C47.0891 20.4573 51.0433 20.4573 54.9975 20.4573C58.3508 20.4573 61.7041 20.4573 65.0574 20.4573C66.2515 20.4573 67.4457 20.4573 68.6398 20.4573C70.0051 20.4573 72.3298 20.9234 72.835 19.6258C73.1984 18.6928 71.8694 16.7994 71.0878 16.126ZM69.3829 18.5429C69.211 18.587 68.9689 18.5574 68.7915 18.5574C67.7633 18.5574 66.7349 18.5574 65.7066 18.5574C62.5037 18.5574 59.3009 18.5574 56.098 18.5574C52.2873 18.5574 48.4767 18.5574 44.666 18.5574C41.8953 18.5574 39.1248 18.5574 36.3543 18.5574C35.5425 18.5574 34.2365 18.7822 34.1481 17.739C34.0025 16.0204 34.3942 14.249 35.351 12.76C36.4221 11.0929 38.1551 9.79161 40.1741 9.19039C41.7016 8.73554 43.2428 8.78185 44.825 8.78185C47.2671 8.78185 49.7094 8.78185 52.1514 8.78185C53.6301 8.78185 55.1158 8.76072 56.565 9.0697C58.513 9.48483 60.1076 10.5042 61.6419 11.6336C64.0084 13.3756 66.3801 15.1102 68.7593 16.8378C69.0169 17.0249 69.2747 17.212 69.5323 17.3989C69.9505 17.7309 70.036 18.3754 69.3829 18.5429Z" fill="#808183"/>
<path fill-rule="evenodd" clip-rule="evenodd" d="M16.9377 45.4627C20.1489 41.5238 25.8143 39.9862 30.5764 41.7684C35.3993 43.5735 38.6079 48.1578 38.6584 53.3075C38.6026 59.0307 34.5334 64.2213 28.8508 65.3368C23.7854 66.3311 18.553 64.0798 15.8635 59.6541C13.1605 55.2056 13.6752 49.4647 16.9377 45.4627ZM93.0129 45.4627C96.2242 41.5238 101.89 39.9862 106.653 41.7684C111.475 43.5735 114.684 48.1578 114.735 53.3075C114.679 59.0306 110.609 64.2211 104.927 65.3368C99.8614 66.3311 94.628 64.08 91.9387 59.6541C89.2357 55.2057 89.7507 49.4647 93.0129 45.4627ZM28.2239 43.5526C24.1751 42.7547 19.9417 44.7111 17.845 48.2401C15.7442 51.7758 16.0525 56.4872 18.7356 59.6444C21.4658 62.8565 25.8789 64.0477 29.8508 62.6102C33.7282 61.2068 36.2611 57.381 36.301 53.3084C36.2547 48.5647 32.889 44.4722 28.2239 43.5526ZM104.3 43.5526C100.251 42.7546 96.0179 44.7111 93.9211 48.2401C91.8206 51.7758 92.1287 56.4872 94.8118 59.6444C97.542 62.8565 101.955 64.0478 105.927 62.6102C109.804 61.2068 112.337 57.381 112.377 53.3084C112.331 48.5647 108.965 44.4722 104.3 43.5526ZM22.1076 49.203C23.636 47.3604 26.3088 46.61 28.5666 47.4403C30.8614 48.2845 32.3563 50.3759 32.4875 52.7928C32.4958 52.8568 32.5008 52.9234 32.4992 52.994C32.5004 53.0513 32.4976 53.1061 32.4924 53.159C32.3595 55.8376 30.4742 58.2649 27.7688 58.7664C25.3194 59.2206 22.7918 58.1349 21.5217 55.9666C20.2693 53.828 20.5368 51.0971 22.1076 49.203ZM98.1838 49.203C99.7121 47.3605 102.384 46.6101 104.642 47.4403C106.937 48.2844 108.432 50.3757 108.564 52.7928C108.572 52.8568 108.577 52.9234 108.575 52.994C108.577 53.0513 108.574 53.1061 108.569 53.159C108.436 55.8376 106.55 58.2649 103.845 58.7664C101.395 59.2206 98.868 58.1349 97.5979 55.9666C96.3454 53.8279 96.6128 51.0971 98.1838 49.203ZM26.6086 49.4608C24.6787 49.4608 23.0754 51.0647 23.0754 52.994C23.0755 54.9235 24.6789 56.5272 26.6086 56.5272C28.5718 56.527 30.0983 54.9237 30.1418 52.994C30.0984 51.064 28.5722 49.4609 26.6086 49.4608ZM102.685 49.4608C100.755 49.4608 99.1516 51.0647 99.1516 52.994C99.1517 54.9235 100.755 56.5272 102.685 56.5272C104.648 56.527 106.174 54.9237 106.218 52.994C106.175 51.064 104.648 49.461 102.685 49.4608ZM62.4455 0.0105871C68.1837 -0.175453 73.7341 2.10375 78.0793 5.79184C80.1409 7.54168 81.9112 9.62152 83.4241 11.8582C84.3334 13.2028 85.1431 14.6135 85.8664 16.0663C86.458 17.2543 86.9404 18.3948 87.9026 19.3368C89.429 20.8307 91.4928 21.6773 93.5295 22.2118C94.3132 22.4174 95.1077 22.5707 95.9084 22.6922C95.9135 22.693 95.9174 22.6935 95.9221 22.6942C95.9252 22.6946 95.9275 22.6947 95.9309 22.6952C95.9795 22.7009 96.0286 22.7085 96.0774 22.7137C96.1757 22.7242 96.2742 22.7345 96.3723 22.745C96.4551 22.7537 96.5391 22.761 96.6223 22.7664C96.869 22.7825 97.0752 22.86 97.2414 22.9764H125.941C131.276 23.0428 135.759 27.3073 135.958 32.6707C136.05 35.1386 135.965 37.6239 135.965 40.0936C135.965 41.0634 136.016 42.0552 135.922 43.0223C135.777 44.5179 135.311 45.9523 134.561 47.2303C133.382 50.7321 130.062 53.2732 126.176 53.2733H116.013C115.922 52.69 115.847 52.1184 115.77 51.5604C115.728 51.4813 115.696 51.3965 115.682 51.3075C115.23 48.5465 114.015 45.9909 112.057 43.9793C108.514 40.3404 103.129 39.0422 98.3078 40.6287C93.7995 42.1126 90.5278 45.9682 89.5119 50.5321L89.3977 51.1082C89.3857 51.1746 89.3725 51.2408 89.3616 51.3075C89.356 51.3414 89.3471 51.3753 89.3371 51.408L88.9563 53.3143L41.468 53.2733H40.0754L39.8342 51.0985C39.3561 48.4178 38.1552 45.94 36.2463 43.9793C32.7034 40.3405 27.318 39.0412 22.4973 40.6278C17.7357 42.195 14.3527 46.4084 13.551 51.3075C13.5441 51.3492 13.5321 51.3898 13.5188 51.4295C13.3381 52.4521 13.2375 53.2733 13.2375 53.2733H9.48753C5.1005 53.2733 1.43673 50.0351 0.758038 45.8319C0.285501 44.6598 0.0236288 43.3927 0.012921 42.0936C-0.00955812 39.3773 0.0129184 36.6596 0.012921 33.9432C0.012921 32.48 0.0839296 31.0343 0.598858 29.6424C1.43805 27.3738 3.0435 25.4271 5.16624 24.2459C6.83372 23.3181 8.66393 22.9764 10.5481 22.9764H16.7727C16.8835 22.9409 17.006 22.9197 17.1409 22.9178C18.1128 22.9047 18.9994 22.6488 19.7991 22.0965C21.2149 21.1189 22.1021 19.3846 22.6438 17.8231C22.8951 17.0987 23.0975 16.3564 23.2561 15.6063C23.3182 15.3119 23.3703 15.016 23.4211 14.7196C23.4357 14.6356 23.4452 14.5506 23.4592 14.4666V14.4647C24.0284 10.1109 26.7151 6.42859 30.3567 4.08188C33.2279 2.23142 36.6126 1.13282 39.9758 0.618985C41.7881 0.342176 43.5854 0.325601 45.4172 0.266446C48.1883 0.17703 50.9687 0.0115636 53.7414 0.0115636C56.6382 0.0115753 59.5505 0.10439 62.4455 0.0105871ZM10.2961 25.3338C7.81633 25.3378 5.4638 26.3496 3.93773 28.3563C2.01625 30.8829 2.37034 33.9783 2.37034 36.953V41.4412C2.37035 42.872 2.50735 44.2543 3.1721 45.5545C3.18316 45.5759 3.19605 45.5966 3.20726 45.618H13.0491C13.7359 44.3861 14.588 43.2458 15.5832 42.2381C19.6876 38.0826 25.993 36.5293 31.552 38.3543C35.3141 39.5896 38.4542 42.237 40.3596 45.618H88.8586C89.5453 44.3861 90.3976 43.2458 91.3928 42.2381C95.4974 38.0825 101.803 36.5292 107.363 38.3543C111.125 39.5896 114.265 42.237 116.17 45.618H132.772C133.318 44.5341 133.597 43.3345 133.608 42.1053C133.615 41.1793 133.608 40.2522 133.608 39.326C133.608 37.0786 133.708 34.8067 133.597 32.5614C133.397 28.5289 129.917 25.3833 125.941 25.3338C125.846 25.3338 125.75 25.3323 125.656 25.3338C123.499 25.3686 121.338 25.3338 119.181 25.3338H79.8147C79.8179 29.5254 79.8544 33.7189 79.8137 37.91C79.7814 41.233 77.4258 44.0911 74.1643 44.7752C72.8341 45.0543 71.3888 44.9472 70.0373 44.9549C64.8349 44.9845 59.6322 45.0152 54.4299 45.0448C52.546 45.0556 50.6615 45.0662 48.7776 45.077C46.2276 45.0915 43.882 44.2002 42.5744 41.868C41.8822 40.5848 41.0207 39.405 39.9787 38.3827C38.5979 37.028 36.9279 35.9812 35.1155 35.3075C33.2091 34.5989 31.0052 34.6285 29.5041 33.0965C27.8809 31.4396 28.1037 29.2856 28.1037 27.1727V25.3338H10.2961ZM28.8889 29.5526C28.899 31.0475 29.5918 32.404 30.883 33.1961C31.8399 33.7829 32.9935 33.8426 34.0539 34.1385C34.9914 34.4002 35.907 34.7459 36.7815 35.1737C39.5522 36.5289 41.7924 38.7653 43.2522 41.4715C44.2523 43.2553 46.0886 44.2755 48.1223 44.2948C51.6341 44.3281 55.1506 44.2542 58.6623 44.2342C63.1013 44.2089 67.5408 44.1844 71.9797 44.159C74.4676 44.1447 76.8286 43.3044 78.1731 41.0623C79.2444 39.2759 79.0276 37.1969 79.0276 35.2039V27.409C79.0276 26.7222 79.0427 26.0279 79.0432 25.3338H28.8782C28.8782 26.7401 28.8796 28.1465 28.8889 29.5526ZM124.457 26.5184C126.347 26.2734 128.386 27.151 129.813 28.3436C130.813 29.1801 131.787 30.4926 131.297 31.8338C131.288 31.8683 131.276 31.9037 131.256 31.9393C131.239 31.9786 131.218 32.0096 131.196 32.037C130.181 33.6425 127.635 33.1394 126.188 32.5418C124.69 31.9234 122.943 30.7605 122.472 29.1034C122.07 27.6891 123.117 26.692 124.457 26.5184ZM43.4534 29.6893C43.9718 29.6894 44.3967 30.114 44.3967 30.6327V31.6834C44.3965 32.2017 43.9719 32.6257 43.4534 32.6258H37.092C36.5735 32.6258 36.1489 32.2018 36.1487 31.6834V30.6327C36.1487 30.1141 36.5733 29.6894 37.092 29.6893H43.4534ZM128.006 28.076C126.972 27.5302 123.967 26.4484 123.248 28.0428C122.626 29.425 124.747 30.9228 125.706 31.4471C126.857 32.076 129.691 33.1177 130.577 31.5428C131.186 30.1015 129.019 28.6108 128.006 28.076ZM4.47288 30.8836C4.56009 26.7256 10.6853 26.4415 13.7121 26.658C13.925 26.6735 14.1038 26.8272 14.1047 27.0506C14.1073 27.7669 14.1042 28.4839 14.092 29.2C14.0852 29.6092 14.2586 30.8564 13.8723 31.162C13.8708 31.1633 13.8689 31.1637 13.8674 31.1649C13.8044 31.2319 13.7135 31.2771 13.594 31.2772H4.86644C4.65706 31.2772 4.46858 31.096 4.47288 30.8836ZM13.2326 30.6991C13.2363 30.6934 13.2392 30.6872 13.2434 30.6815C13.2439 30.68 13.2447 30.6773 13.2453 30.6756C13.2366 30.6878 13.2332 30.6955 13.2326 30.6991ZM13.3176 27.4217C12.105 27.3629 10.8654 27.4279 9.67308 27.618C7.9538 27.8922 5.61216 28.5474 5.29515 30.4911H13.2619C13.2599 30.3521 13.279 30.2075 13.2844 30.0692C13.3008 29.6506 13.3068 29.2313 13.3117 28.8123C13.3173 28.3491 13.3178 27.8852 13.3176 27.4217ZM55.1936 4.40707C50.7225 4.45135 46.2478 4.44912 41.7776 4.53988C38.3377 4.60979 34.6691 5.94252 32.2268 8.40121C29.9514 10.6916 28.8899 13.6932 28.8899 16.8836C28.8899 18.9141 28.8827 20.9456 28.8791 22.9764H78.9416C78.882 22.4159 78.7905 21.8597 78.6477 21.3123C77.868 18.3242 75.9927 16.1257 73.6692 14.2127C71.7589 12.64 69.848 11.0677 67.9377 9.49496C66.2509 8.10606 64.61 6.56675 62.6194 5.62289C60.2368 4.49333 57.7597 4.38173 55.1936 4.40707ZM61.6282 2.36899C58.7948 2.36899 55.9527 2.30198 53.1203 2.37582C49.7752 2.46304 46.4298 2.59123 43.0852 2.69906C42.582 2.71544 42.0805 2.72323 41.5793 2.77133C41.3766 2.79093 41.1734 2.8162 40.9709 2.83969C40.9503 2.84203 40.9324 2.84388 40.9172 2.84555C40.9099 2.84687 40.9002 2.84911 40.885 2.85141C40.749 2.87185 40.6117 2.8905 40.4758 2.91195C39.8086 3.01705 39.1453 3.14773 38.4875 3.30063C34.9208 4.13002 31.4138 5.62077 28.8586 8.35043C27.3643 9.9467 26.3761 11.912 25.9133 14.0448C25.8941 14.1333 25.7867 14.6663 25.8069 14.5526C25.8262 14.4439 25.814 14.4891 25.8098 14.5125C25.8027 14.5527 25.8002 14.5943 25.7942 14.6346C25.7582 14.8714 25.7322 15.1099 25.6946 15.3465C25.5965 15.9638 25.4641 16.5764 25.3039 17.1805C24.7426 19.2964 23.7639 21.4306 22.2854 22.9754H28.1037V19.0936C28.1037 16.8934 28.015 14.717 28.7317 12.5946C30.0333 8.74029 33.1509 5.91257 36.9719 4.64438C39.2755 3.87988 41.5247 3.75576 43.9045 3.73227C48.2489 3.68916 52.5942 3.61435 56.9387 3.60336C60.4177 3.59462 63.5393 4.85903 66.2014 7.05063C68.0899 8.6055 69.9789 10.1608 71.8674 11.7157C73.4762 13.0403 75.2849 14.3118 76.6526 15.8963C78.4171 17.9407 79.4033 20.3705 79.7092 22.9754H88.9319C87.2196 22.0508 85.7286 20.7891 84.7385 19.0975C84.7246 19.0738 84.7113 19.0491 84.6975 19.0252C84.6771 19.0281 84.6565 19.0318 84.636 19.034C83.7148 19.1334 82.7704 19.3201 81.8537 19.0946C81.076 18.903 80.443 18.4438 79.8694 17.908C77.6715 15.8551 75.4734 13.8019 73.2756 11.7489C72.587 11.1055 71.8003 10.4897 71.2121 9.74789C69.9213 8.1192 70.1459 5.71131 71.5803 4.33188C70.9138 4.01249 70.2366 3.72908 69.5539 3.4891C68.8128 3.22852 68.0572 3.00728 67.2922 2.82797C66.9292 2.743 66.5636 2.66632 66.1965 2.60043C66.0347 2.57154 65.8716 2.54573 65.7092 2.51938C65.6192 2.50488 65.5488 2.49485 65.508 2.4891C64.2079 2.32449 62.9305 2.36898 61.6282 2.36899ZM44.9221 5.10922H53.6653C56.2603 5.10925 58.8056 5.36689 61.1653 6.5184C63.561 7.68773 65.5609 9.59592 67.6203 11.2528C69.8044 13.0101 72.0048 14.7475 74.1975 16.494C74.2311 16.5207 74.2618 16.5501 74.2903 16.5809C75.1743 17.4166 75.5058 18.7103 75.095 19.868C74.5233 21.478 73.0653 21.9559 71.5207 21.9559H42.6653C39.6155 21.9559 36.538 22.0799 33.4905 21.9559C31.9686 21.8939 30.6342 20.9363 30.2453 19.4305C30.0194 18.5551 30.1041 17.459 30.1741 16.5643C30.3946 13.7455 31.5398 11.0863 33.468 9.01254C35.3409 6.99832 37.9179 5.64189 40.6399 5.25277C42.0576 5.05015 43.4938 5.10922 44.9221 5.10922ZM43.2434 7.46664C41.9169 7.47695 40.6118 7.5511 39.3157 7.97445C37.0315 8.72057 35.0714 10.3353 33.8596 12.4041C32.7772 14.2519 32.3335 16.45 32.4983 18.5829C32.5984 19.8773 34.0756 19.5985 34.9944 19.5985H71.6926C71.8934 19.5985 72.1671 19.6355 72.3616 19.5809C73.1001 19.373 73.0041 18.5728 72.5315 18.161C72.24 17.9288 71.948 17.6969 71.6565 17.4647C68.9648 15.3207 66.281 13.1675 63.6037 11.0057C61.8683 9.60438 60.0641 8.33928 57.8606 7.82406C56.2209 7.44073 54.5394 7.46664 52.8664 7.46664H43.2434ZM73.8205 5.65512C72.9942 6.02917 72.467 6.86002 72.7746 7.77817C72.9148 8.19658 73.2176 8.47005 73.5276 8.75961C75.4814 10.5849 77.436 12.4109 79.3899 14.2362C80.1351 14.9323 80.8699 15.643 81.6272 16.326C82.1942 16.8372 82.8628 16.8756 83.5539 16.8104C83.2266 16.1419 82.8947 15.4745 82.5159 14.8329C81.764 13.5593 80.9372 12.3212 80.009 11.1688C78.4677 9.25481 76.685 7.51071 74.6565 6.11703C74.4054 5.94469 74.1498 5.77843 73.8928 5.61606C73.8692 5.62953 73.8458 5.64365 73.8205 5.65512Z" fill="#1A1919"/>
</svg>
